<svg width="180" height="48" viewBox="0 0 180 48" fill="none" xmlns="http://www.w3.org/2000/svg">
<rect width="180" height="48" rx="24" fill="#1F7CFF"/>
<path d="M68.1253 20.64V23.44H71.8853V25.216H68.1253V28.176H72.3653V30H65.8853V18.816H72.3653V20.64H68.1253ZM79.3129 21.008C80.3689 21.008 81.2222 21.344 81.8729 22.016C82.5235 22.6773 82.8489 23.6053 82.8489 24.8V30H80.6089V25.104C80.6089 24.4 80.4329 23.8613 80.0809 23.488C79.7289 23.104 79.2489 22.912 78.6409 22.912C78.0222 22.912 77.5315 23.104 77.1689 23.488C76.8169 23.8613 76.6409 24.4 76.6409 25.104V30H74.4009V21.136H76.6409V22.24C76.9395 21.856 77.3182 21.5573 77.7769 21.344C78.2462 21.12 78.7582 21.008 79.3129 21.008ZM88.675 27.936L90.915 21.136H93.299L90.019 30H87.299L84.035 21.136H86.435L88.675 27.936ZM95.6931 20.08C95.2985 20.08 94.9678 19.9573 94.7011 19.712C94.4451 19.456 94.3171 19.1413 94.3171 18.768C94.3171 18.3947 94.4451 18.0853 94.7011 17.84C94.9678 17.584 95.2985 17.456 95.6931 17.456C96.0878 17.456 96.4131 17.584 96.6691 17.84C96.9358 18.0853 97.0691 18.3947 97.0691 18.768C97.0691 19.1413 96.9358 19.456 96.6691 19.712C96.4131 19.9573 96.0878 20.08 95.6931 20.08ZM96.7971 21.136V30H94.5571V21.136H96.7971ZM98.4342 25.536C98.4342 24.64 98.6102 23.8453 98.9622 23.152C99.3249 22.4587 99.8103 21.9253 100.418 21.552C101.037 21.1787 101.725 20.992 102.482 20.992C103.144 20.992 103.72 21.1253 104.21 21.392C104.712 21.6587 105.112 21.9947 105.41 22.4V21.136H107.666V30H105.41V28.704C105.122 29.12 104.722 29.4667 104.21 29.744C103.709 30.0107 103.128 30.144 102.466 30.144C101.72 30.144 101.037 29.952 100.418 29.568C99.8103 29.184 99.3249 28.6453 98.9622 27.952C98.6102 27.248 98.4342 26.4427 98.4342 25.536ZM105.41 25.568C105.41 25.024 105.304 24.56 105.09 24.176C104.877 23.7813 104.589 23.4827 104.226 23.28C103.864 23.0667 103.474 22.96 103.058 22.96C102.642 22.96 102.258 23.0613 101.906 23.264C101.554 23.4667 101.266 23.7653 101.042 24.16C100.829 24.544 100.722 25.0027 100.722 25.536C100.722 26.0693 100.829 26.5387 101.042 26.944C101.266 27.3387 101.554 27.6427 101.906 27.856C102.269 28.0693 102.653 28.176 103.058 28.176C103.474 28.176 103.864 28.0747 104.226 27.872C104.589 27.6587 104.877 27.36 105.09 26.976C105.304 26.5813 105.41 26.112 105.41 25.568ZM112.094 22.512C112.382 22.0427 112.755 21.6747 113.214 21.408C113.683 21.1413 114.217 21.008 114.814 21.008V23.36H114.222C113.518 23.36 112.985 23.5253 112.622 23.856C112.27 24.1867 112.094 24.7627 112.094 25.584V30H109.854V21.136H112.094V22.512Z" fill="white"/>
</svg>
